<svg width="16" height="14" viewBox="0 0 16 14" fill="none" xmlns="http://www.w3.org/2000/svg">
<path d="M0 13.7172V11.9087H15.8246V13.7172H0ZM0 8.81101V7.00244H15.8246V8.81101H0ZM0 5.16467V0.265814C0.00380775 0.21768 0.0196325 0.171271 0.0460246 0.130838C0.0724168 0.0904055 0.108533 0.0572412 0.151064 0.0343836C0.193595 0.0115259 0.241182 -0.000294323 0.289465 5.56723e-06C0.337748 0.000305458 0.385185 0.0127159 0.427429 0.0361001L0.425714 0.0355287L5.27314 2.47724C5.31817 2.49874 5.35622 2.53251 5.38292 2.57467C5.40961 2.61683 5.42387 2.66566 5.42405 2.71556C5.42422 2.76546 5.41032 2.8144 5.38393 2.85674C5.35754 2.89909 5.31973 2.93314 5.27486 2.95496L5.27314 2.95553L0.425714 5.39496C0.383201 5.41768 0.33563 5.42928 0.287429 5.42867H0.276C0.204969 5.42861 0.136686 5.40121 0.085303 5.35217C0.0339197 5.30313 0.00337542 5.23562 0 5.16467ZM7.23372 3.77039V1.96181H15.824V3.77039H7.23372Z" fill="white"/>
</svg>
